HIERARCHY
ROOT hips
{
	OFFSET -0.003675 0.299928 -0.021708
	CHANNELS 6 Xposition Yposition Zposition Xrotation Yrotation Zrotation
	JOINT LowerBack
	{
		OFFSET 0.000919 0.177588 0.009275
		CHANNELS 3 Xrotation Yrotation Zrotation
		JOINT spine
		{
			OFFSET 0.000919 0.177588 0.009275
			CHANNELS 3 Xrotation Yrotation Zrotation
			JOINT chest
			{
				OFFSET 0.000456 0.100015 0.004638
				CHANNELS 3 Xrotation Yrotation Zrotation
				JOINT neck
				{
					OFFSET 0.000456 0.100015 0.004638
					CHANNELS 3 Xrotation Yrotation Zrotation
					JOINT head
					{
						OFFSET 0.000924 0.155147 0.009274
						CHANNELS 6 Xposition Yposition Zposition Xrotation Yrotation Zrotation
						End Site
						{
							OFFSET 0.000000 0.153400 0.000000
						}
					}
				}
				JOINT shoulder.L
				{
					OFFSET 0.019937 0.078966 0.057518
					CHANNELS 6 Xposition Yposition Zposition Yrotation Xrotation Zrotation
					JOINT upper_arm.L
					{
						OFFSET 0.177024 -0.020465 -0.095062
						CHANNELS 6 Xposition Yposition Zposition Xrotation Yrotation Zrotation
						JOINT forearm.L
						{
							OFFSET 0.247100 -0.135500 -0.061800
							CHANNELS 3 Xrotation Yrotation Zrotation
							JOINT hand.L
							{
								OFFSET 0.217000 -0.143000 0.039300
								CHANNELS 3 Xrotation Yrotation Zrotation
								JOINT palm.01.L
								{
									OFFSET 0.021770 -0.038291 0.012954
									CHANNELS 6 Xposition Yposition Zposition Yrotation Xrotation Zrotation
									JOINT f_index.01.L
									{
										OFFSET 0.053215 -0.044137 0.008236
										CHANNELS 3 Xrotation Yrotation Zrotation
										JOINT f_index.02.L
										{
											OFFSET 0.036108 -0.024723 -0.010656
											CHANNELS 3 Xrotation Yrotation Zrotation
											JOINT f_index.03.L
											{
												OFFSET 0.021342 -0.014948 -0.010846
												CHANNELS 3 Xrotation Yrotation Zrotation
												End Site
												{
													OFFSET 0.015600 -0.009860 -0.013421
												}
											}
										}
									}
									JOINT thumb.01.L
									{
										OFFSET -0.009090 -0.002348 -0.024223
										CHANNELS 6 Xposition Yposition Zposition Xrotation Yrotation Zrotation
										JOINT thumb.02.L
										{
											OFFSET 0.019713 -0.035076 -0.011120
											CHANNELS 3 Xrotation Yrotation Zrotation
											JOINT thumb.03.L
											{
												OFFSET 0.024877 -0.021748 -0.005176
												CHANNELS 3 Xrotation Yrotation Zrotation
												End Site
												{
													OFFSET 0.016125 -0.013029 -0.001569
												}
											}
										}
									}
								}
								JOINT palm.02.L
								{
									OFFSET 0.032823 -0.025104 0.012281
									CHANNELS 6 Xposition Yposition Zposition Yrotation Xrotation Zrotation
									JOINT f_middle.01.L
									{
										OFFSET 0.055723 -0.038469 0.008037
										CHANNELS 3 Xrotation Yrotation Zrotation
										JOINT f_middle.02.L
										{
											OFFSET 0.038167 -0.027473 -0.015582
											CHANNELS 3 Xrotation Yrotation Zrotation
											JOINT f_middle.03.L
											{
												OFFSET 0.021707 -0.016587 -0.017037
												CHANNELS 3 Xrotation Yrotation Zrotation
												End Site
												{
													OFFSET 0.014112 -0.010584 -0.014294
												}
											}
										}
									}
								}
								JOINT palm.03.L
								{
									OFFSET 0.039230 -0.011402 0.008390
									CHANNELS 6 Xposition Yposition Zposition Yrotation Xrotation Zrotation
									JOINT f_ring.01.L
									{
										OFFSET 0.061796 -0.031470 0.007910
										CHANNELS 3 Xrotation Yrotation Zrotation
										JOINT f_ring.02.L
										{
											OFFSET 0.033092 -0.023401 -0.019127
											CHANNELS 3 Xrotation Yrotation Zrotation
											JOINT f_ring.03.L
											{
												OFFSET 0.021392 -0.015362 -0.017824
												CHANNELS 3 Xrotation Yrotation Zrotation
												End Site
												{
													OFFSET 0.008670 -0.007297 -0.014686
												}
											}
										}
									}
								}
								JOINT palm.04.L
								{
									OFFSET 0.043417 0.002450 0.002889
									CHANNELS 6 Xposition Yposition Zposition Yrotation Xrotation Zrotation
									JOINT f_pinky.01.L
									{
										OFFSET 0.069986 -0.026156 0.003627
										CHANNELS 3 Xrotation Yrotation Zrotation
										JOINT f_pinky.02.L
										{
											OFFSET 0.018520 -0.012813 -0.016429
											CHANNELS 3 Xrotation Yrotation Zrotation
											JOINT f_pinky.03.L
											{
												OFFSET 0.013822 -0.009796 -0.014947
												CHANNELS 3 Xrotation Yrotation Zrotation
												End Site
												{
													OFFSET 0.007238 -0.006103 -0.011657
												}
											}
										}
									}
								}
							}
						}
					}
				}
				JOINT shoulder.R
				{
					OFFSET -0.016662 0.078957 0.057696
					CHANNELS 6 Xposition Yposition Zposition Yrotation Xrotation Zrotation
					JOINT upper_arm.R
					{
						OFFSET -0.176972 -0.020537 -0.095144
						CHANNELS 6 Xposition Yposition Zposition Xrotation Yrotation Zrotation
						JOINT forearm.R
						{
							OFFSET -0.247100 -0.135500 -0.061800
							CHANNELS 3 Xrotation Yrotation Zrotation
							JOINT hand.R
							{
								OFFSET -0.217000 -0.143000 0.039300
								CHANNELS 3 Xrotation Yrotation Zrotation
								JOINT palm.01.R
								{
									OFFSET -0.021773 -0.038278 0.012988
									CHANNELS 6 Xposition Yposition Zposition Yrotation Xrotation Zrotation
									JOINT f_index.01.R
									{
										OFFSET -0.053212 -0.044139 0.008249
										CHANNELS 3 Xrotation Yrotation Zrotation
										JOINT f_index.02.R
										{
											OFFSET -0.036049 -0.024835 -0.010634
											CHANNELS 3 Xrotation Yrotation Zrotation
											JOINT f_index.03.R
											{
												OFFSET -0.021371 -0.014881 -0.010866
												CHANNELS 3 Xrotation Yrotation Zrotation
												End Site
												{
													OFFSET -0.015584 -0.009883 -0.013422
												}
											}
										}
									}
									JOINT thumb.01.R
									{
										OFFSET 0.009113 -0.002381 -0.024211
										CHANNELS 6 Xposition Yposition Zposition Xrotation Yrotation Zrotation
										JOINT thumb.02.R
										{
											OFFSET -0.019694 -0.035097 -0.011088
											CHANNELS 3 Xrotation Yrotation Zrotation
											JOINT thumb.03.R
											{
												OFFSET -0.024867 -0.021762 -0.005168
												CHANNELS 3 Xrotation Yrotation Zrotation
												End Site
												{
													OFFSET -0.016120 -0.013036 -0.001565
												}
											}
										}
									}
								}
								JOINT palm.02.R
								{
									OFFSET -0.032828 -0.025095 0.012286
									CHANNELS 6 Xposition Yposition Zposition Yrotation Xrotation Zrotation
									JOINT f_middle.01.R
									{
										OFFSET -0.055721 -0.038472 0.008040
										CHANNELS 3 Xrotation Yrotation Zrotation
										JOINT f_middle.02.R
										{
											OFFSET -0.038101 -0.027593 -0.015557
											CHANNELS 3 Xrotation Yrotation Zrotation
											JOINT f_middle.03.R
											{
												OFFSET -0.021730 -0.016530 -0.017054
												CHANNELS 3 Xrotation Yrotation Zrotation
												End Site
												{
													OFFSET -0.014096 -0.010608 -0.014293
												}
											}
										}
									}
								}
								JOINT palm.03.R
								{
									OFFSET -0.039192 -0.011488 0.008390
									CHANNELS 6 Xposition Yposition Zposition Yrotation Xrotation Zrotation
									JOINT f_ring.01.R
									{
										OFFSET -0.061839 -0.031387 0.007876
										CHANNELS 3 Xrotation Yrotation Zrotation
										JOINT f_ring.02.R
										{
											OFFSET -0.033068 -0.023437 -0.019125
											CHANNELS 3 Xrotation Yrotation Zrotation
											JOINT f_ring.03.R
											{
												OFFSET -0.021371 -0.015393 -0.017822
												CHANNELS 3 Xrotation Yrotation Zrotation
												End Site
												{
													OFFSET -0.008654 -0.007321 -0.014684
												}
											}
										}
									}
								}
								JOINT palm.04.R
								{
									OFFSET -0.043421 0.002443 0.002845
									CHANNELS 6 Xposition Yposition Zposition Yrotation Xrotation Zrotation
									JOINT f_pinky.01.R
									{
										OFFSET -0.069983 -0.026169 0.003599
										CHANNELS 3 Xrotation Yrotation Zrotation
										JOINT f_pinky.02.R
										{
											OFFSET -0.018501 -0.012842 -0.016428
											CHANNELS 3 Xrotation Yrotation Zrotation
											JOINT f_pinky.03.R
											{
												OFFSET -0.013806 -0.009821 -0.014946
												CHANNELS 3 Xrotation Yrotation Zrotation
												End Site
												{
													OFFSET -0.007226 -0.006121 -0.011655
												}
											}
										}
									}
								}
							}
						}
					}
				}
			}
		}
	}
	JOINT pelvis.L
	{
		OFFSET 0.000000 0.000000 0.000000
		CHANNELS 6 Xposition Yposition Zposition Xrotation Yrotation Zrotation
		JOINT thigh.L
		{
			OFFSET 0.101675 0.001054 -0.000000
			CHANNELS 3 Xrotation Yrotation Zrotation
			JOINT shin.L
			{
				OFFSET 0.000000 -0.534800 0.041000
				CHANNELS 3 Xrotation Yrotation Zrotation
				JOINT foot.L
				{
					OFFSET 0.000000 -0.452000 -0.044800
					CHANNELS 3 Xrotation Yrotation Zrotation
					JOINT toe.L
					{
						OFFSET -0.000000 -0.068500 0.109600
						CHANNELS 3 Xrotation Yrotation Zrotation
						End Site
						{
							OFFSET -0.000000 0.000000 0.067200
						}
					}
				}
				JOINT heel.L
				{
					OFFSET 0.000000 -0.452000 -0.044800
					CHANNELS 3 Xrotation Yrotation Zrotation
					JOINT heel.02.L
					{
						OFFSET -0.038000 -0.085200 0.016200
						CHANNELS 6 Xposition Yposition Zposition Xrotation Yrotation Zrotation
						End Site
						{
							OFFSET 0.080000 -0.000000 0.000000
						}
					}
				}
			}
		}
	}
	JOINT pelvis.R
	{
		OFFSET 0.000000 0.000000 0.000000
		CHANNELS 6 Xposition Yposition Zposition Xrotation Yrotation Zrotation
		JOINT thigh.R
		{
			OFFSET -0.094325 0.001054 0.000000
			CHANNELS 3 Xrotation Yrotation Zrotation
			JOINT shin.R
			{
				OFFSET 0.000000 -0.534800 0.041000
				CHANNELS 3 Xrotation Yrotation Zrotation
				JOINT foot.R
				{
					OFFSET 0.000000 -0.452000 -0.044800
					CHANNELS 3 Xrotation Yrotation Zrotation
					JOINT toe.R
					{
						OFFSET -0.000000 -0.068500 0.109600
						CHANNELS 3 Xrotation Yrotation Zrotation
						End Site
						{
							OFFSET -0.000000 0.000000 0.067200
						}
					}
				}
				JOINT heel.R
				{
					OFFSET 0.000000 -0.452000 -0.044800
					CHANNELS 3 Xrotation Yrotation Zrotation
					JOINT heel.02.R
					{
						OFFSET 0.038000 -0.085200 0.016200
						CHANNELS 6 Xposition Yposition Zposition Xrotation Yrotation Zrotation
						End Site
						{
							OFFSET -0.080000 0.000000 -0.000000
						}
					}
				}
			}
		}
	}
}
MOTION
Frames: 4
Frame Time: 0.041667
-0.003532 0.278039 -0.020638 19.693418 -74.751954 20.529057 -0.000001 -0.000000 -0.000000 -0.000001 0.000001 0.000000 0.000000 -0.000000 0.000000 0.000001 -0.000000 0.000000 0.000924 0.155147 0.009274 23.140795 -0.019678 -5.283897 0.019937 0.078966 0.057518 -3.406160 7.203121 40.052742 0.177024 -0.020465 -0.095062 -67.443289 9.593777 -49.647060 -78.651834 -8.009046 -52.980913 -0.000001 -0.000001 -0.000004 0.021770 -0.038291 0.012954 0.000004 -0.000000 0.000001 -0.000000 -0.000002 -0.000000 -0.000002 -0.000004 0.000006 -0.000002 -0.000004 0.000003 -0.009090 -0.002348 -0.024224 0.000004 0.000000 -0.000003 -0.000000 0.000002 -0.000000 -0.000000 0.000001 -0.000002 0.032823 -0.025104 0.012281 0.000003 0.000004 0.000007 0.000001 0.000000 -0.000007 -0.000003 0.000000 0.000001 -0.000000 0.000003 0.000003 0.039230 -0.011402 0.008390 0.000004 0.000001 0.000008 0.000005 0.000001 0.000001 0.000001 0.000002 0.000003 0.000000 -0.000003 0.000004 0.043417 0.002450 0.002889 0.000003 0.000001 0.000002 -0.000002 0.000004 -0.000004 0.000001 0.000003 0.000001 -0.000000 -0.000000 0.000001 -0.016662 0.078957 0.057696 1.192679 6.069432 -34.533563 -0.176972 -0.020537 -0.095144 -35.494977 -10.593238 54.929372 -33.657157 -55.383945 125.245452 -0.000000 0.000001 -0.000000 -0.021773 -0.038278 0.012988 -0.000002 -0.000002 0.000000 -0.000002 -0.000000 0.000002 0.000000 0.000005 -0.000004 -0.000002 -0.000000 -0.000003 0.009114 -0.002381 -0.024212 -0.000003 -0.000003 0.000000 0.000000 -0.000002 -0.000001 0.000001 -0.000001 -0.000006 -0.032828 -0.025095 0.012286 0.000003 -0.000002 -0.000001 0.000001 0.000002 0.000001 -0.000003 0.000004 -0.000002 -0.000004 0.000003 -0.000002 -0.039192 -0.011488 0.008390 -0.000001 -0.000001 -0.000000 0.000000 0.000003 0.000000 0.000003 0.000001 0.000002 0.000001 -0.000001 -0.000000 -0.043421 0.002442 0.002845 -0.000001 -0.000001 -0.000001 -0.000002 0.000004 0.000001 -0.000002 -0.000004 -0.000000 -0.000000 -0.000003 0.000001 0.000000 0.000000 -0.000000 -1.373759 0.178289 -3.367327 -18.985626 -0.417234 -4.139244 55.999751 -0.644764 6.521644 -0.000005 0.000001 -0.000000 -0.000002 0.000000 -0.000000 -0.000005 0.000001 0.000000 -0.038000 -0.085200 0.016200 0.000001 -0.000001 0.000000 -0.000000 0.000000 -0.000000 -1.339078 0.176608 -2.133236 -14.143960 -0.080920 -2.353759 51.582097 -0.136987 1.383409 -0.000002 -0.000001 0.000000 -0.000002 0.000001 0.000001 -0.000002 -0.000002 0.000001 0.038000 -0.085200 0.016200 -0.000002 0.000001 0.000000 
0.001591 0.279732 -0.020879 48.844783 -76.963876 51.160641 -0.000001 -0.000001 -0.000000 -0.000001 0.000001 0.000000 0.000000 -0.000001 0.000000 0.000001 -0.000001 0.000000 0.000924 0.155148 0.009274 25.588580 -0.025346 -10.370910 0.019937 0.078966 0.057518 7.144955 5.717667 32.522840 0.177025 -0.020465 -0.095062 -35.733624 12.634284 -59.978411 -68.475618 28.919403 -76.231475 -0.000002 0.000000 0.000001 0.021770 -0.038291 0.012954 0.000002 0.000000 0.000001 -0.000003 0.000001 -0.000004 0.000000 0.000003 0.000007 -0.000004 0.000003 -0.000001 -0.009090 -0.002348 -0.024224 -0.000000 -0.000002 -0.000001 0.000003 -0.000000 0.000001 0.000001 0.000004 0.000001 0.032823 -0.025104 0.012281 0.000002 -0.000003 0.000007 -0.000003 0.000002 -0.000007 -0.000004 0.000002 0.000004 -0.000003 -0.000000 0.000000 0.039230 -0.011402 0.008390 0.000002 -0.000003 0.000004 0.000002 -0.000000 -0.000002 -0.000001 0.000004 -0.000002 0.000003 -0.000002 0.000001 0.043417 0.002450 0.002889 0.000001 -0.000001 -0.000002 -0.000001 -0.000003 -0.000000 -0.000001 -0.000003 0.000001 -0.000003 -0.000003 -0.000001 -0.016662 0.078957 0.057696 2.942035 4.103366 -30.935750 -0.176972 -0.020537 -0.095144 -14.396048 -11.027462 56.145661 -45.967214 -41.103484 106.321491 0.000004 0.000001 0.000004 -0.021773 -0.038278 0.012988 0.000002 -0.000001 -0.000003 -0.000001 0.000001 -0.000001 -0.000001 0.000001 -0.000008 -0.000000 0.000002 0.000003 0.009113 -0.002381 -0.024212 -0.000001 0.000005 -0.000000 0.000001 -0.000002 0.000002 0.000001 -0.000005 -0.000001 -0.032828 -0.025095 0.012286 0.000004 0.000001 -0.000003 0.000003 -0.000003 -0.000001 0.000001 0.000001 -0.000002 -0.000004 0.000007 -0.000002 -0.039192 -0.011488 0.008390 0.000003 -0.000000 -0.000002 0.000003 -0.000003 0.000000 -0.000000 0.000001 -0.000002 0.000002 -0.000006 0.000003 -0.043421 0.002443 0.002845 0.000001 0.000000 -0.000001 -0.000004 0.000000 0.000001 -0.000001 -0.000001 -0.000000 -0.000001 0.000001 0.000002 0.000000 0.000000 -0.000000 -1.508332 0.293918 -4.748785 -31.922241 -0.666045 -6.667017 45.381157 -0.625944 6.330486 0.000000 -0.000000 -0.000000 0.000003 -0.000001 0.000000 0.000002 -0.000000 -0.000000 -0.038000 -0.085200 0.016200 0.000001 -0.000000 -0.000000 0.000000 -0.000000 0.000000 -1.467027 0.290916 -3.514812 -29.022539 -0.120845 -3.896977 42.734824 -0.074732 0.754955 -0.000002 -0.000000 0.000001 0.000001 -0.000000 0.000000 0.000007 0.000000 0.000000 0.038000 -0.085200 0.016200 -0.000000 -0.000000 0.000000 
0.003138 0.286484 -0.020666 56.083134 -74.702339 56.144613 -0.000000 -0.000000 0.000000 -0.000001 -0.000001 -0.000000 -0.000002 0.000000 -0.000000 0.000000 0.000001 -0.000000 0.000924 0.155148 0.009274 25.107386 -0.019896 -2.159329 0.019937 0.078966 0.057518 5.057580 4.987190 30.313927 0.177025 -0.020465 -0.095062 -18.120695 11.467945 -61.373116 -56.395854 24.449770 -84.862457 -0.000002 -0.000001 -0.000006 0.021770 -0.038291 0.012954 0.000001 -0.000000 -0.000004 0.000005 0.000002 -0.000000 -0.000003 -0.000003 0.000005 0.000003 0.000001 0.000002 -0.009090 -0.002348 -0.024223 0.000006 0.000002 -0.000000 0.000002 -0.000000 0.000005 -0.000001 -0.000001 0.000003 0.032823 -0.025104 0.012281 -0.000001 -0.000001 0.000005 -0.000001 0.000002 -0.000002 0.000001 0.000002 -0.000000 0.000003 -0.000001 0.000001 0.039230 -0.011402 0.008390 0.000000 -0.000001 0.000003 0.000002 0.000000 -0.000000 0.000001 0.000003 -0.000001 0.000000 -0.000000 0.000002 0.043417 0.002450 0.002889 -0.000001 -0.000001 -0.000002 -0.000000 -0.000006 -0.000002 0.000001 0.000002 0.000000 0.000000 -0.000002 -0.000001 -0.016662 0.078957 0.057696 -1.044977 4.473049 -30.013125 -0.176972 -0.020537 -0.095144 -15.337285 -10.332086 55.170214 -56.698927 -28.138192 87.017983 -0.000003 0.000003 0.000003 -0.021773 -0.038278 0.012988 -0.000003 -0.000003 -0.000003 0.000001 0.000002 -0.000001 0.000000 0.000001 -0.000008 0.000000 0.000000 0.000004 0.009114 -0.002381 -0.024211 0.000001 -0.000002 0.000002 0.000003 -0.000003 0.000002 0.000002 0.000001 0.000001 -0.032828 -0.025095 0.012286 0.000002 -0.000000 -0.000005 0.000001 -0.000002 0.000000 0.000003 -0.000003 -0.000001 0.000000 0.000003 -0.000000 -0.039192 -0.011488 0.008390 -0.000000 0.000002 -0.000002 -0.000002 0.000004 -0.000002 0.000002 -0.000002 0.000002 -0.000001 -0.000001 -0.000000 -0.043421 0.002443 0.002844 0.000001 -0.000003 -0.000002 -0.000003 0.000005 -0.000001 -0.000000 -0.000001 -0.000000 -0.000000 -0.000000 0.000002 0.000000 0.000000 -0.000000 -1.470604 0.247660 -4.193654 -34.838923 -0.561882 -5.175842 38.305859 -0.183660 1.855421 -0.000003 -0.000001 -0.000000 0.000002 -0.000000 -0.000000 0.000000 -0.000000 0.000000 -0.038000 -0.085200 0.016200 -0.000003 0.000001 -0.000000 0.000000 -0.000000 -0.000000 -1.431607 0.245210 -2.959637 -33.584160 0.132887 -0.841418 39.537913 0.351298 -3.545739 0.000000 0.000001 0.000001 -0.000001 -0.000000 0.000001 0.000003 0.000001 -0.000000 0.038000 -0.085200 0.016200 -0.000001 0.000000 0.000001 
0.001534 0.296746 -0.015692 49.870896 -78.600465 49.655110 0.000001 0.000001 0.000000 0.000002 -0.000000 0.000000 0.000000 0.000001 -0.000000 -0.000000 0.000000 0.000000 0.000924 0.155147 0.009274 30.719517 -0.013189 0.374057 0.019937 0.078966 0.057518 3.921729 5.994650 31.451525 0.177024 -0.020465 -0.095062 -4.122167 10.942486 -64.700005 -37.572727 -2.637532 -68.532602 -0.000002 0.000003 0.000001 0.021770 -0.038291 0.012954 -0.000002 -0.000002 -0.000004 -0.000004 -0.000005 -0.000001 -0.000001 -0.000001 0.000007 0.000003 -0.000000 0.000002 -0.009090 -0.002348 -0.024224 -0.000001 -0.000003 0.000002 -0.000000 0.000003 0.000001 -0.000001 -0.000001 0.000001 0.032823 -0.025104 0.012281 -0.000002 -0.000006 -0.000001 0.000001 0.000012 -0.000001 -0.000003 -0.000002 0.000001 -0.000001 0.000001 0.000001 0.039230 -0.011402 0.008390 -0.000001 -0.000002 0.000001 -0.000002 0.000003 0.000001 -0.000001 0.000003 0.000004 0.000006 -0.000008 0.000001 0.043417 0.002450 0.002889 -0.000004 -0.000001 -0.000003 -0.000004 -0.000009 -0.000002 -0.000001 -0.000000 -0.000001 -0.000001 -0.000003 -0.000004 -0.016662 0.078956 0.057696 -7.471639 5.553789 -27.826763 -0.176972 -0.020537 -0.095144 -9.116589 -10.065070 53.230980 -47.340775 -21.406831 92.992971 -0.000001 -0.000002 0.000006 -0.021773 -0.038278 0.012988 0.000001 -0.000004 -0.000003 0.000000 0.000003 0.000006 -0.000001 0.000001 -0.000002 -0.000003 0.000002 0.000005 0.009114 -0.002381 -0.024211 0.000005 -0.000003 0.000006 -0.000000 0.000003 0.000002 -0.000001 0.000003 -0.000003 -0.032828 -0.025095 0.012286 0.000003 -0.000001 -0.000001 -0.000001 0.000003 -0.000003 0.000001 0.000002 -0.000001 -0.000003 0.000002 -0.000007 -0.039192 -0.011488 0.008390 0.000001 0.000001 0.000005 0.000002 0.000000 -0.000003 0.000000 0.000001 -0.000003 -0.000002 0.000003 -0.000000 -0.043421 0.002443 0.002845 -0.000001 0.000001 0.000002 0.000001 0.000002 -0.000002 -0.000001 0.000004 -0.000000 -0.000001 0.000003 0.000001 0.000000 0.000000 0.000000 -1.317862 0.486168 -7.460060 -26.737382 -0.509248 -5.006549 14.024102 0.005313 -0.051544 -0.000002 -0.000000 -0.000001 -0.000001 -0.000001 0.000001 -0.000002 0.000000 -0.000001 -0.038000 -0.085200 0.016200 -0.000004 -0.000001 0.000002 0.000000 0.000000 0.000000 -1.275417 0.481057 -6.226235 -24.176054 0.131375 -0.178862 21.072512 0.896596 -9.084180 0.000002 0.000003 -0.000001 0.000001 0.000000 -0.000001 0.000005 -0.000000 0.000001 0.038000 -0.085200 0.016200 -0.000001 -0.000000 0.000002 
